PathFileType	4	(X/Y/Z)	S:\OneDrive - The University of Tokyo\ìåëÂéˆã∆\ÉoÉCÉÅÉJ\ë™íË\hirabayashi_2\Trimmed\Trimmed_BarR20kg1.trc
DataRate	CameraRate	NumFrames	NumMarkers	Units	OrigDataRate	OrigDataStartFrame	OrigNumFrames
200.00	200.00	       24	12	mm	200.00	235	       313
Frame#	Time	BarR0			BarR50			BarR100			BarR130			BarR180			BarR230			BarL0			BarL50			BarL100			BarL130			BarL180			BarL230			
		X1	Y1	Z1	X2	Y2	Z2	X3	Y3	Z3	X4	Y4	Z4	X5	Y5	Z5	X6	Y6	Z6	X7	Y7	Z7	X8	Y8	Z8	X9	Y9	Z9	X10	Y10	Z10	X11	Y11	Z11	X12	Y12	Z12	

235	1.170	-576.33759	2754.88916	1664.23889	-603.86719	2305.60889	1657.82678	-637.89966	1851.80371	1654.49109	-660.48438	1349.58850	1654.42163	-689.74847	902.97363	1658.46997	-713.77002	455.07941	1664.11731	-1113.49097	2808.15942	1664.66833	-1140.77197	2356.49634	1667.94910	-1171.25659	1906.03296	1668.92480	-1198.98230	1404.29456	1669.25391	-1226.82617	952.63550	1668.40942	-1244.70496	506.46170	1667.65112	
236	1.175	-576.35291	2754.93872	1664.23206	-603.89740	2305.62476	1657.82568	-637.88495	1851.79187	1654.49500	-660.48126	1349.61975	1654.43152	-689.77362	902.98419	1658.47302	-713.77441	455.09393	1664.12415	-1113.47791	2808.16089	1664.65723	-1140.76819	2356.50562	1667.95020	-1171.27734	1906.02393	1668.91956	-1199.00024	1404.25208	1669.26746	-1226.82385	952.63354	1668.40906	-1244.71582	506.45361	1667.65710	
237	1.180	-576.34619	2754.92554	1664.23901	-603.87073	2305.62305	1657.82068	-637.89337	1851.80151	1654.49170	-660.48462	1349.60376	1654.42444	-689.76434	902.96490	1658.47913	-713.78925	455.07611	1664.12671	-1113.50427	2808.18213	1664.66858	-1140.76904	2356.50952	1667.95813	-1171.27722	1906.04297	1668.93066	-1198.98779	1404.29797	1669.25366	-1226.83618	952.64001	1668.40857	-1244.69727	506.46301	1667.65833	
238	1.185	-576.35950	2754.92017	1664.23560	-603.88293	2305.62939	1657.80786	-637.90649	1851.79175	1654.49585	-660.50055	1349.61304	1654.41736	-689.77173	902.99274	1658.46265	-713.76160	455.07553	1664.12024	-1113.52869	2808.14282	1664.67578	-1140.76807	2356.54297	1667.94885	-1171.28003	1906.04443	1668.91711	-1198.98962	1404.26318	1669.26233	-1226.59497	952.67352	1668.39075	-1244.69385	506.45386	1667.65234	
239	1.190	-576.36218	2754.92139	1664.22864	-603.87933	2305.67603	1657.81055	-637.87408	1851.81873	1654.49109	-660.48120	1349.63123	1654.42615	-689.76392	902.99835	1658.46582	-713.76959	455.05475	1664.11646	-1113.50745	2808.15869	1664.65417	-1140.75928	2356.50977	1667.95190	-1171.28137	1906.02612	1668.91626	-1198.98181	1404.25854	1669.25842	-1226.82227	952.63519	1668.39355	-1244.69055	506.45099	1667.64526	
240	1.195	-576.34534	2754.90137	1664.23010	-603.89136	2305.64502	1657.82031	-637.90271	1851.81018	1654.49731	-660.48236	1349.60181	1654.43127	-689.75134	903.00012	1658.47192	-713.76306	455.08786	1664.11926	-1113.50537	2808.17114	1664.66162	-1140.76428	2356.50684	1667.93127	-1171.27234	1906.03406	1668.91858	-1198.98108	1404.27136	1669.25586	-1226.83398	952.64990	1668.41077	-1244.69348	506.44656	1667.65161	
241	1.200	-576.34351	2754.91040	1664.22412	-603.88287	2305.63892	1657.81079	-637.92468	1851.81372	1654.50562	-660.48462	1349.59155	1654.41907	-689.75555	902.96747	1658.47693	-713.77295	455.06326	1664.11938	-1113.47607	2808.15820	1664.67078	-1140.76636	2356.49512	1667.94922	-1171.27869	1906.04761	1668.91565	-1198.98230	1404.26819	1669.26428	-1226.32007	952.71826	1668.40125	-1244.71631	506.46182	1667.65234	
242	1.205	-576.34601	2754.88306	1664.21973	-603.90717	2305.66797	1657.82434	-637.89435	1851.80933	1654.50391	-660.47144	1349.59058	1654.43420	-689.76642	902.96729	1658.47632	-713.77014	455.07468	1664.11536	-1113.51013	2808.16919	1664.66272	-1140.76660	2356.52124	1667.95349	-1171.28223	1906.04529	1668.92139	-1198.98267	1404.28101	1669.25061	-1226.84253	952.62885	1668.41028	-1244.70801	506.47565	1667.65344	
243	1.210	-576.35175	2754.90869	1664.22864	-603.88464	2305.64063	1657.82837	-637.89923	1851.82385	1654.50159	-660.48566	1349.61169	1654.43481	-689.78778	902.97260	1658.46350	-713.74908	455.06650	1664.11975	-1113.48462	2808.16260	1664.66138	-1140.77258	2356.50732	1667.95593	-1171.25781	1906.03833	1668.92981	-1199.00159	1404.27393	1669.26013	-1226.82068	952.64661	1668.41431	-1244.70776	506.47672	1667.65613	
244	1.215	-576.35742	2754.88721	1664.22119	-603.89166	2305.65771	1657.81238	-637.90588	1851.82178	1654.49414	-660.47540	1349.61108	1654.43188	-689.77905	902.96899	1658.46765	-713.78320	455.06561	1664.12610	-1113.49377	2808.14355	1664.67505	-1140.76440	2356.49927	1667.96240	-1171.28296	1906.05359	1668.91614	-1198.99121	1404.27844	1669.25110	-1226.82947	952.62549	1668.40845	-1244.69666	506.45520	1667.64966	
245	1.220	-576.35101	2754.92065	1664.22668	-603.85022	2305.63721	1657.83508	-637.90997	1851.80164	1654.50146	-660.47510	1349.60071	1654.42212	-689.77808	902.95673	1658.46448	-713.76965	455.07071	1664.12415	-1113.51294	2808.14648	1664.64490	-1140.77393	2356.52734	1667.93945	-1171.29773	1906.03870	1668.90759	-1199.00146	1404.29175	1669.25610	-1226.83728	952.62720	1668.39124	-1244.68799	506.47220	1667.64502	
246	1.225	-576.34564	2754.91528	1664.23572	-603.88287	2305.65820	1657.82324	-637.89764	1851.82117	1654.48901	-660.48431	1349.60791	1654.42419	-689.77655	902.96338	1658.45776	-713.77216	455.07300	1664.12683	-1113.49097	2808.15942	1664.65149	-1140.76807	2356.50415	1667.95581	-1171.25867	1906.03162	1668.92810	-1199.01038	1404.27759	1669.26575	-1226.82129	952.63422	1668.40674	-1244.71375	506.47604	1667.64966	
247	1.230	-576.34448	2754.89966	1664.23071	-603.88818	2305.63330	1657.80957	-637.91144	1851.82715	1654.49011	-660.47388	1349.60425	1654.43384	-689.77209	902.98376	1658.46692	-713.76465	455.09259	1664.11218	-1113.47766	2808.16016	1664.67456	-1140.76416	2356.51172	1667.95203	-1171.28748	1906.04407	1668.91528	-1198.99561	1404.30139	1669.25830	-1226.83606	952.63055	1668.40979	-1244.71338	506.45309	1667.66211	
248	1.235	-576.34241	2754.89966	1664.22827	-603.90015	2305.63623	1657.82861	-637.89954	1851.82434	1654.49036	-660.46198	1349.60376	1654.42676	-689.76721	902.98956	1658.47314	-713.78943	455.07297	1664.12122	-1113.49414	2808.14990	1664.67358	-1140.77332	2356.50049	1667.95105	-1171.24695	1906.03577	1668.92407	-1199.00891	1404.28760	1669.24878	-1226.82727	952.64117	1668.41614	-1244.71960	506.48730	1667.65100	
249	1.240	-576.34540	2754.91919	1664.21094	-603.87585	2305.63403	1657.82190	-637.91290	1851.82800	1654.50439	-660.47174	1349.59766	1654.43738	-689.76117	902.98102	1658.48901	-713.77728	455.07300	1664.11707	-1113.50293	2808.14478	1664.65051	-1140.76563	2356.50488	1667.95020	-1171.26892	1906.06396	1668.92395	-1198.99194	1404.29114	1669.25427	-1226.83105	952.63928	1668.41455	-1244.70349	506.47037	1667.65808	
250	1.245	-576.33124	2754.89038	1664.21375	-603.88190	2305.65649	1657.81873	-637.89459	1851.81787	1654.49170	-660.48517	1349.60156	1654.43469	-689.76080	902.98944	1658.46582	-713.76392	455.06216	1664.11682	-1113.49548	2808.15698	1664.65662	-1140.77319	2356.52881	1667.94446	-1171.27271	1906.03625	1668.93164	-1198.99341	1404.29602	1669.26257	-1226.82739	952.64056	1668.40479	-1244.70056	506.43048	1667.66711	
251	1.250	-576.34332	2754.90649	1664.23364	-603.88861	2305.66211	1657.80469	-637.90027	1851.80798	1654.50684	-660.47260	1349.62048	1654.43201	-689.76398	902.97681	1658.47083	-713.76080	455.07874	1664.11365	-1113.52734	2808.15576	1664.65466	-1140.76611	2356.50269	1667.94690	-1171.25891	1906.03918	1668.93018	-1198.99622	1404.25317	1669.25952	-1226.83667	952.63300	1668.41174	-1244.70984	506.45975	1667.64795	
252	1.255	-576.35571	2754.90356	1664.23254	-603.87244	2305.64185	1657.82251	-637.88678	1851.82874	1654.50073	-660.47656	1349.60144	1654.41504	-689.77728	902.99829	1658.47107	-713.77417	455.08981	1664.12646	-1113.48853	2808.15674	1664.65869	-1140.76599	2356.50757	1667.95776	-1171.27283	1906.04065	1668.92334	-1199.00452	1404.28101	1669.25818	-1226.81262	952.66083	1668.39758	-1244.68652	506.43735	1667.65295	
253	1.260	-576.33826	2754.88452	1664.24097	-603.91827	2305.66772	1657.83630	-637.90125	1851.81152	1654.50208	-660.48523	1349.59912	1654.42615	-689.77612	902.98834	1658.47021	-713.74316	455.07684	1664.11462	-1113.53687	2808.15649	1664.66699	-1140.76941	2356.52783	1667.96643	-1171.25488	1906.04797	1668.92188	-1199.01379	1404.29041	1669.26392	-1226.83398	952.63782	1668.40356	-1244.71143	506.46512	1667.64954	
254	1.265	-576.34503	2754.88428	1664.23901	-603.90692	2305.61816	1657.83789	-637.90454	1851.81677	1654.50330	-660.48944	1349.59924	1654.42151	-689.77948	902.98047	1658.46887	-713.76892	455.05856	1664.11206	-1113.48206	2808.15308	1664.66504	-1140.77258	2356.50854	1667.94971	-1171.28052	1906.04663	1668.91321	-1198.99182	1404.29504	1669.25891	-1226.81860	952.64880	1668.40601	-1244.68921	506.45612	1667.65039	
255	1.270	-576.34705	2754.90747	1664.21301	-603.88995	2305.63843	1657.81689	-637.88623	1851.83337	1654.48389	-660.48712	1349.61707	1654.42480	-689.76874	903.00891	1658.46643	-713.76300	455.07962	1664.12427	-1113.51099	2808.15771	1664.66785	-1140.77917	2356.51392	1667.94031	-1171.26782	1906.04041	1668.92578	-1199.00586	1404.27710	1669.25342	-1226.82458	952.64642	1668.39905	-1244.71680	506.49081	1667.64709	
256	1.275	-576.33997	2754.89600	1664.22961	-603.89490	2305.63794	1657.84058	-637.88928	1851.80469	1654.49365	-660.48578	1349.62329	1654.41504	-689.76758	902.95734	1658.44946	-713.76270	455.09055	1664.11438	-1113.49512	2808.15332	1664.68933	-1140.77356	2356.50415	1667.96655	-1171.29102	1906.05359	1668.91064	-1198.99304	1404.30481	1669.26196	-1226.82800	952.64154	1668.41602	-1244.72070	506.47519	1667.64648	
257	1.280	-576.35309	2754.89844	1664.23218	-603.90082	2305.62817	1657.82043	-637.93298	1851.83423	1654.50159	-660.46973	1349.60083	1654.43433	-689.77448	902.98962	1658.48108	-713.76624	455.06680	1664.12402	-1113.49268	2808.14844	1664.66675	-1140.77332	2356.51953	1667.93591	-1171.27417	1906.04956	1668.92456	-1199.00281	1404.29041	1669.26453	-1226.81641	952.63623	1668.41211	-1244.70850	506.45428	1667.65613	
258	1.285	-576.35211	2754.90967	1664.23352	-603.88806	2305.63867	1657.82312	-637.90533	1851.84424	1654.48950	-660.45880	1349.59827	1654.43335	-689.75421	902.97186	1658.47595	-713.77155	455.07730	1664.11462	-1113.52710	2808.14404	1664.66016	-1140.77100	2356.49414	1667.94373	-1171.26221	1906.02710	1668.91589	-1198.99829	1404.29431	1669.25195	-1226.82446	952.65027	1668.41467	-1244.70557	506.46545	1667.64893	
